<?xml version="1.0" encoding="UTF-8" standalone="no"?>
<!-- Created with Inkscape (http://www.inkscape.org/) -->
<svg
   xmlns:svg="http://www.w3.org/2000/svg"
   xmlns="http://www.w3.org/2000/svg"
   version="1.0"
   width="671.07001"
   height="291.29999"
   id="svg2">
  <defs
     id="defs4">
    <clipPath
       id="clipPath2498">
      <path
         d="M 0,841.98 L 595.2,841.98 L 595.2,0 L 0,0 L 0,841.98 z"
         id="path2500" />
    </clipPath>
    <clipPath
       id="clipPath2492">
      <path
         d="M 567.48,61.011 L 27.48,61.011 L 27.48,781.011 L 567.48,781.011 L 567.48,61.011 z"
         id="path2494" />
    </clipPath>
    <clipPath
       id="clipPath2480">
      <path
         d="M 0,841.98 L 595.2,841.98 L 595.2,0 L 0,0 L 0,841.98 z"
         id="path2482" />
    </clipPath>
    <clipPath
       id="clipPath2474">
      <path
         d="M 567.48,61.011 L 27.48,61.011 L 27.48,781.011 L 567.48,781.011 L 567.48,61.011 z"
         id="path2476" />
    </clipPath>
    <clipPath
       id="clipPath2464">
      <path
         d="M 0,841.98 L 595.2,841.98 L 595.2,0 L 0,0 L 0,841.98 z"
         id="path2466" />
    </clipPath>
    <clipPath
       id="clipPath2458">
      <path
         d="M 567.48,61.011 L 27.48,61.011 L 27.48,781.011 L 567.48,781.011 L 567.48,61.011 z"
         id="path2460" />
    </clipPath>
  </defs>
  <g
     transform="translate(-4.7153961e-2,-1.1262905)"
     id="layer1">
    <g
       transform="matrix(4.2257524,0,0,4.2257524,-1236.5974,-2076.7347)"
       id="g2678">
      <g
         transform="matrix(0,0.3084498,0.2323006,0,274.24613,485.60452)"
         clip-path="url(#clipPath2498)"
         id="g2496">
        <path
           d="M 27.48,89.391 L 235.62,89.391 L 235.62,752.631 L 27.48,752.631 L 27.48,89.391 z"
           id="path2502"
           style="fill:#0d1b3c;fill-opacity:1;fill-rule:nonzero;stroke:none" />
      </g>
      <g
         transform="translate(-325.62356,313.67959)"
         id="g2657">
        <path
           d="M 714.92143,224.63361 L 720.32143,224.63361 L 720.32143,196.05861 L 717.69643,197.40861 L 714.92143,196.05861 L 714.92143,224.63361"
           id="path2510"
           style="fill:#ff9400;fill-opacity:1;fill-rule:evenodd;stroke:none" />
        <path
           d="M 714.92143,196.05861 L 720.32143,196.05861 L 717.69643,199.13361 L 714.92143,196.05861"
           id="path2514"
           style="fill:#ff9400;fill-opacity:1;fill-rule:evenodd;stroke:none" />
        <path
           d="M 698.87018,212.70861 L 698.79518,212.63361 L 698.64518,212.40861 C 698.28518,211.89486 697.97268,211.42236 697.59518,210.90861 L 697.52018,210.83361 L 697.52018,200.10861 C 697.99393,199.50861 698.24393,198.72986 698.64518,198.23361 L 698.79518,197.93361 L 698.87018,197.85861 L 698.79518,197.78361 L 698.64518,197.55861 L 698.42018,197.25861 L 697.97018,196.50861 L 697.74518,196.20861 L 697.59518,195.98361 L 697.52018,195.90861 L 695.04518,195.90861 C 693.43768,195.89236 691.96143,196.04111 690.32018,195.98361 L 689.79518,196.05861 L 689.27018,196.05861 L 689.27018,196.28361 C 689.16143,197.24111 689.14893,198.70486 689.27018,199.65861 L 689.27018,199.88361 L 692.19518,200.18361 L 692.19518,224.63361 L 697.52018,224.63361 L 697.52018,215.10861 L 698.87018,212.70861"
           id="path2518"
           style="fill:#ff9400;fill-opacity:1;fill-rule:evenodd;stroke:none" />
        <path
           d="M 696.54643,212.78361 L 697.52143,215.10861 L 701.34643,215.10861 C 707.75893,214.70236 711.30018,210.40111 710.79643,204.00861 L 710.64643,202.95861 C 709.53768,196.60611 703.66393,195.65736 698.19643,195.90861 L 697.52143,195.90861 L 697.52143,195.98361 L 697.37143,196.20861 C 697.12143,196.72111 696.84768,197.22611 696.54643,197.70861 L 696.54643,197.85861 C 696.83268,198.48111 697.13268,199.09486 697.37143,199.73361 L 697.52143,200.03361 L 697.52143,200.10861 L 698.19643,200.10861 C 701.53893,199.87236 704.38643,199.81986 705.32143,203.63361 L 705.32143,203.93361 L 705.39643,204.23361 L 705.39643,204.53361 C 705.43143,206.02736 705.43143,207.63861 704.49643,208.88361 L 704.42143,209.03361 L 704.27143,209.25861 L 704.04643,209.40861 C 703.78143,209.89361 703.52893,209.87611 703.14643,210.15861 L 702.92143,210.30861 L 702.69643,210.38361 C 702.32518,210.49861 701.55393,210.80236 701.19643,210.75861 L 700.89643,210.75861 L 700.59643,210.83361 L 697.52143,210.83361 L 696.54643,212.78361"
           id="path2522"
           style="fill:#ff9400;fill-opacity:1;fill-rule:evenodd;stroke:none" />
        <path
           d="M 678.92143,220.20861 L 678.92143,196.05861 L 678.77143,196.05861 C 676.39643,196.05861 674.02143,196.05861 671.64643,196.05861 L 670.97143,196.05861 L 670.89643,196.28361 C 670.89643,197.43361 670.89643,198.58361 670.89643,199.73361 L 670.97143,199.95861 L 673.67143,200.25861 L 673.67143,224.63361 L 688.37143,224.63361 L 688.37143,220.20861 L 678.92143,220.20861"
           id="path2526"
           style="fill:#ff9400;fill-opacity:1;fill-rule:evenodd;stroke:none" />
        <path
           d="M 656.12143,198.23361 L 657.17143,200.70861 L 657.24643,200.70861 L 657.32143,201.00861 C 657.52018,201.78611 657.68893,202.56736 657.92143,203.33361 L 661.14643,213.38361 L 657.17143,213.38361 L 656.12143,215.25861 L 657.17143,217.35861 L 662.27143,217.35861 L 662.27143,217.43361 L 662.34643,217.65861 C 662.78893,218.53486 662.94768,219.76861 663.39643,220.73361 L 663.62143,221.40861 L 663.77143,222.08361 L 663.99643,222.68361 L 664.14643,223.28361 L 664.44643,224.18361 L 664.52143,224.33361 L 664.52143,224.63361 L 670.14643,224.63361 L 670.14643,224.55861 C 667.29893,215.56986 664.13643,206.65111 661.14643,197.70861 L 660.54643,196.05861 L 657.17143,196.05861 L 656.12143,198.23361"
           id="path2530"
           style="fill:#ff9400;fill-opacity:1;fill-rule:evenodd;stroke:none" />
        <path
           d="M 658.14643,215.25861 L 657.17143,213.38361 L 653.27143,213.38361 L 656.42143,203.33361 C 656.47893,202.83111 657.07768,201.44236 657.02143,201.00861 L 657.09643,200.70861 L 657.17143,200.70861 L 658.14643,198.38361 L 657.17143,196.05861 L 654.24643,196.05861 L 653.64643,197.70861 C 650.65143,206.67611 647.29643,215.51111 644.49643,224.55861 L 644.49643,224.63361 L 649.89643,224.63361 L 649.89643,224.48361 C 650.58893,222.11861 651.33268,219.78111 652.07143,217.43361 L 652.07143,217.35861 L 657.17143,217.35861 L 658.14643,215.25861"
           id="path2534"
           style="fill:#ff9400;fill-opacity:1;fill-rule:evenodd;stroke:none" />
        <path
           d="M 746.34518,221.70861 L 746.57018,221.48361 L 746.72018,221.25861 C 753.55018,213.40111 751.02643,195.58361 738.32018,195.83361 L 736.97018,195.83361 C 722.43018,196.01736 721.86893,218.08736 730.67018,224.78361 L 731.04518,225.00861 L 731.34518,225.23361 L 733.89518,220.28361 L 733.59518,219.98361 L 733.44518,219.75861 C 731.41643,217.69611 730.98893,215.42861 730.67018,212.63361 L 730.67018,211.65861 C 730.50893,208.23861 730.81268,202.34611 734.64518,200.85861 L 734.94518,200.70861 L 735.32018,200.55861 L 735.62018,200.48361 C 745.53268,198.33486 745.71143,210.90861 743.49518,217.20861 L 743.42018,217.28361 L 743.34518,217.43361 L 743.27018,217.43361 L 743.27018,217.28361 L 743.19518,217.20861 L 743.12018,217.05861 L 743.04518,216.83361 L 742.89518,216.68361 L 742.74518,216.38361 L 742.59518,216.15861 L 741.47018,214.20861 L 741.09518,214.20861 C 739.67393,214.08486 737.26893,214.08861 735.84518,214.20861 L 735.54518,214.20861 L 744.77018,229.05861 C 746.67018,229.26111 748.57518,229.12986 750.47018,229.13361 L 750.84518,229.05861 L 746.34518,221.70861"
           id="path2538"
           style="fill:#ff9400;fill-opacity:1;fill-rule:evenodd;stroke:none" />
      </g>
    </g>
  </g>
</svg>
